<mxfile host="app.diagrams.net" agent="Mozilla/5.0 (Windows NT 10.0; Win64; x64) AppleWebKit/537.36 (KHTML, like Gecko) Chrome/133.0.0.0 Safari/537.36 Edg/133.0.0.0" version="26.0.15">
  <diagram name="Page-1" id="ZwQ6uKk3uL2s0LRVHkqx">
    <mxGraphModel dx="260" dy="142" grid="1" gridSize="10" guides="1" tooltips="1" connect="1" arrows="1" fold="1" page="1" pageScale="1" pageWidth="850" pageHeight="1100" math="0" shadow="0">
      <root>
        <mxCell id="0" />
        <mxCell id="1" parent="0" />
        <mxCell id="NecGl6S2mi5TgRfiK0er-1" value="" style="shape=or;whiteSpace=wrap;html=1;" vertex="1" parent="1">
          <mxGeometry x="120" y="40" width="120" height="160" as="geometry" />
        </mxCell>
        <mxCell id="NecGl6S2mi5TgRfiK0er-2" value="" style="shape=or;whiteSpace=wrap;html=1;" vertex="1" parent="1">
          <mxGeometry x="120" y="560" width="120" height="160" as="geometry" />
        </mxCell>
        <mxCell id="NecGl6S2mi5TgRfiK0er-3" value="" style="shape=or;whiteSpace=wrap;html=1;" vertex="1" parent="1">
          <mxGeometry x="120" y="390" width="120" height="160" as="geometry" />
        </mxCell>
        <mxCell id="NecGl6S2mi5TgRfiK0er-4" value="" style="shape=or;whiteSpace=wrap;html=1;" vertex="1" parent="1">
          <mxGeometry x="120" y="220" width="120" height="160" as="geometry" />
        </mxCell>
        <mxCell id="NecGl6S2mi5TgRfiK0er-5" style="edgeStyle=orthogonalEdgeStyle;rounded=0;orthogonalLoop=1;jettySize=auto;html=1;exitX=1;exitY=0.5;exitDx=0;exitDy=0;exitPerimeter=0;entryX=0.175;entryY=0.25;entryDx=0;entryDy=0;entryPerimeter=0;" edge="1" parent="1" source="NecGl6S2mi5TgRfiK0er-6" target="NecGl6S2mi5TgRfiK0er-10">
          <mxGeometry relative="1" as="geometry">
            <mxPoint x="730" y="290" as="targetPoint" />
          </mxGeometry>
        </mxCell>
        <mxCell id="NecGl6S2mi5TgRfiK0er-6" value="" style="shape=xor;whiteSpace=wrap;html=1;" vertex="1" parent="1">
          <mxGeometry x="310" y="140" width="130" height="140" as="geometry" />
        </mxCell>
        <mxCell id="NecGl6S2mi5TgRfiK0er-7" style="edgeStyle=orthogonalEdgeStyle;rounded=0;orthogonalLoop=1;jettySize=auto;html=1;exitX=1;exitY=0.5;exitDx=0;exitDy=0;exitPerimeter=0;entryX=0.175;entryY=0.25;entryDx=0;entryDy=0;entryPerimeter=0;" edge="1" parent="1" source="NecGl6S2mi5TgRfiK0er-1" target="NecGl6S2mi5TgRfiK0er-6">
          <mxGeometry relative="1" as="geometry" />
        </mxCell>
        <mxCell id="NecGl6S2mi5TgRfiK0er-8" style="edgeStyle=orthogonalEdgeStyle;rounded=0;orthogonalLoop=1;jettySize=auto;html=1;exitX=1;exitY=0.5;exitDx=0;exitDy=0;exitPerimeter=0;entryX=0.25;entryY=0.5;entryDx=0;entryDy=0;entryPerimeter=0;" edge="1" parent="1" source="NecGl6S2mi5TgRfiK0er-4" target="NecGl6S2mi5TgRfiK0er-6">
          <mxGeometry relative="1" as="geometry" />
        </mxCell>
        <mxCell id="NecGl6S2mi5TgRfiK0er-9" style="edgeStyle=orthogonalEdgeStyle;rounded=0;orthogonalLoop=1;jettySize=auto;html=1;exitX=1;exitY=0.5;exitDx=0;exitDy=0;exitPerimeter=0;" edge="1" parent="1" source="NecGl6S2mi5TgRfiK0er-10">
          <mxGeometry relative="1" as="geometry">
            <mxPoint x="780" y="374.9230769230769" as="targetPoint" />
          </mxGeometry>
        </mxCell>
        <mxCell id="NecGl6S2mi5TgRfiK0er-10" value="" style="shape=xor;whiteSpace=wrap;html=1;" vertex="1" parent="1">
          <mxGeometry x="570" y="280" width="160" height="190" as="geometry" />
        </mxCell>
        <mxCell id="NecGl6S2mi5TgRfiK0er-11" style="edgeStyle=orthogonalEdgeStyle;rounded=0;orthogonalLoop=1;jettySize=auto;html=1;exitX=1;exitY=0.5;exitDx=0;exitDy=0;exitPerimeter=0;entryX=0.175;entryY=0.75;entryDx=0;entryDy=0;entryPerimeter=0;" edge="1" parent="1" source="NecGl6S2mi5TgRfiK0er-12" target="NecGl6S2mi5TgRfiK0er-10">
          <mxGeometry relative="1" as="geometry">
            <mxPoint x="710" y="440" as="targetPoint" />
          </mxGeometry>
        </mxCell>
        <mxCell id="NecGl6S2mi5TgRfiK0er-12" value="" style="shape=xor;whiteSpace=wrap;html=1;" vertex="1" parent="1">
          <mxGeometry x="340" y="470" width="110" height="140" as="geometry" />
        </mxCell>
        <mxCell id="NecGl6S2mi5TgRfiK0er-13" style="edgeStyle=orthogonalEdgeStyle;rounded=0;orthogonalLoop=1;jettySize=auto;html=1;exitX=1;exitY=0.5;exitDx=0;exitDy=0;exitPerimeter=0;entryX=0.175;entryY=0.25;entryDx=0;entryDy=0;entryPerimeter=0;" edge="1" parent="1" source="NecGl6S2mi5TgRfiK0er-3" target="NecGl6S2mi5TgRfiK0er-12">
          <mxGeometry relative="1" as="geometry" />
        </mxCell>
        <mxCell id="NecGl6S2mi5TgRfiK0er-14" style="edgeStyle=orthogonalEdgeStyle;rounded=0;orthogonalLoop=1;jettySize=auto;html=1;exitX=1;exitY=0.5;exitDx=0;exitDy=0;exitPerimeter=0;entryX=0.25;entryY=0.5;entryDx=0;entryDy=0;entryPerimeter=0;" edge="1" parent="1" source="NecGl6S2mi5TgRfiK0er-2" target="NecGl6S2mi5TgRfiK0er-12">
          <mxGeometry relative="1" as="geometry" />
        </mxCell>
        <mxCell id="NecGl6S2mi5TgRfiK0er-16" style="edgeStyle=orthogonalEdgeStyle;rounded=0;orthogonalLoop=1;jettySize=auto;html=1;exitX=0;exitY=0.5;exitDx=0;exitDy=0;" edge="1" parent="1" source="NecGl6S2mi5TgRfiK0er-17">
          <mxGeometry relative="1" as="geometry">
            <mxPoint x="40" y="54.87234042553189" as="targetPoint" />
          </mxGeometry>
        </mxCell>
        <mxCell id="NecGl6S2mi5TgRfiK0er-17" value="" style="ellipse;whiteSpace=wrap;html=1;aspect=fixed;" vertex="1" parent="1">
          <mxGeometry x="110" y="50" width="10" height="10" as="geometry" />
        </mxCell>
        <mxCell id="NecGl6S2mi5TgRfiK0er-20" style="edgeStyle=orthogonalEdgeStyle;rounded=0;orthogonalLoop=1;jettySize=auto;html=1;exitX=0;exitY=0.5;exitDx=0;exitDy=0;" edge="1" parent="1" source="NecGl6S2mi5TgRfiK0er-21">
          <mxGeometry relative="1" as="geometry">
            <mxPoint x="40" y="94.87234042553189" as="targetPoint" />
          </mxGeometry>
        </mxCell>
        <mxCell id="NecGl6S2mi5TgRfiK0er-21" value="" style="ellipse;whiteSpace=wrap;html=1;aspect=fixed;" vertex="1" parent="1">
          <mxGeometry x="110" y="90" width="10" height="10" as="geometry" />
        </mxCell>
        <mxCell id="NecGl6S2mi5TgRfiK0er-22" value="" style="endArrow=classic;html=1;rounded=0;exitX=0;exitY=0.75;exitDx=0;exitDy=0;exitPerimeter=0;" edge="1" parent="1" source="NecGl6S2mi5TgRfiK0er-1">
          <mxGeometry width="50" height="50" relative="1" as="geometry">
            <mxPoint x="160" y="140" as="sourcePoint" />
            <mxPoint x="40" y="170" as="targetPoint" />
            <Array as="points">
              <mxPoint x="120" y="170" />
            </Array>
          </mxGeometry>
        </mxCell>
        <mxCell id="NecGl6S2mi5TgRfiK0er-23" value="a[3]" style="text;html=1;align=center;verticalAlign=middle;resizable=0;points=[];autosize=1;strokeColor=none;fillColor=none;" vertex="1" parent="1">
          <mxGeometry x="30" y="30" width="40" height="30" as="geometry" />
        </mxCell>
        <mxCell id="NecGl6S2mi5TgRfiK0er-24" value="a[2]" style="text;html=1;align=center;verticalAlign=middle;resizable=0;points=[];autosize=1;strokeColor=none;fillColor=none;" vertex="1" parent="1">
          <mxGeometry x="30" y="68" width="40" height="30" as="geometry" />
        </mxCell>
        <mxCell id="NecGl6S2mi5TgRfiK0er-26" value="a[0]" style="text;html=1;align=center;verticalAlign=middle;resizable=0;points=[];autosize=1;strokeColor=none;fillColor=none;" vertex="1" parent="1">
          <mxGeometry x="30" y="140" width="40" height="30" as="geometry" />
        </mxCell>
        <mxCell id="NecGl6S2mi5TgRfiK0er-27" style="edgeStyle=orthogonalEdgeStyle;rounded=0;orthogonalLoop=1;jettySize=auto;html=1;exitX=0;exitY=0.5;exitDx=0;exitDy=0;" edge="1" parent="1" source="NecGl6S2mi5TgRfiK0er-28">
          <mxGeometry relative="1" as="geometry">
            <mxPoint x="40" y="245.08510638297872" as="targetPoint" />
          </mxGeometry>
        </mxCell>
        <mxCell id="NecGl6S2mi5TgRfiK0er-28" value="" style="ellipse;whiteSpace=wrap;html=1;aspect=fixed;" vertex="1" parent="1">
          <mxGeometry x="110" y="240" width="10" height="10" as="geometry" />
        </mxCell>
        <mxCell id="NecGl6S2mi5TgRfiK0er-29" style="edgeStyle=orthogonalEdgeStyle;rounded=0;orthogonalLoop=1;jettySize=auto;html=1;exitX=0;exitY=0.586;exitDx=0;exitDy=0;exitPerimeter=0;" edge="1" parent="1" source="NecGl6S2mi5TgRfiK0er-4">
          <mxGeometry relative="1" as="geometry">
            <mxPoint x="40" y="315" as="targetPoint" />
            <mxPoint x="110" y="315" as="sourcePoint" />
            <Array as="points">
              <mxPoint x="120" y="315" />
            </Array>
          </mxGeometry>
        </mxCell>
        <mxCell id="NecGl6S2mi5TgRfiK0er-33" value="" style="endArrow=classic;html=1;rounded=0;" edge="1" parent="1">
          <mxGeometry width="50" height="50" relative="1" as="geometry">
            <mxPoint x="110" y="282.85" as="sourcePoint" />
            <mxPoint x="40" y="282.85" as="targetPoint" />
          </mxGeometry>
        </mxCell>
        <mxCell id="NecGl6S2mi5TgRfiK0er-34" value="a[3]" style="text;html=1;align=center;verticalAlign=middle;resizable=0;points=[];autosize=1;strokeColor=none;fillColor=none;" vertex="1" parent="1">
          <mxGeometry x="50" y="218" width="40" height="30" as="geometry" />
        </mxCell>
        <mxCell id="NecGl6S2mi5TgRfiK0er-35" value="a[2]" style="text;html=1;align=center;verticalAlign=middle;resizable=0;points=[];autosize=1;strokeColor=none;fillColor=none;" vertex="1" parent="1">
          <mxGeometry x="40" y="258" width="40" height="30" as="geometry" />
        </mxCell>
        <mxCell id="NecGl6S2mi5TgRfiK0er-36" value="a[1]" style="text;html=1;align=center;verticalAlign=middle;resizable=0;points=[];autosize=1;strokeColor=none;fillColor=none;" vertex="1" parent="1">
          <mxGeometry x="40" y="288" width="40" height="30" as="geometry" />
        </mxCell>
        <mxCell id="NecGl6S2mi5TgRfiK0er-38" style="edgeStyle=orthogonalEdgeStyle;rounded=0;orthogonalLoop=1;jettySize=auto;html=1;exitX=-0.01;exitY=0.531;exitDx=0;exitDy=0;exitPerimeter=0;" edge="1" parent="1" source="NecGl6S2mi5TgRfiK0er-3">
          <mxGeometry relative="1" as="geometry">
            <mxPoint x="50" y="474.8723404255319" as="targetPoint" />
            <mxPoint x="110" y="475.0000000000001" as="sourcePoint" />
          </mxGeometry>
        </mxCell>
        <mxCell id="NecGl6S2mi5TgRfiK0er-40" value="" style="endArrow=classic;html=1;rounded=0;" edge="1" parent="1">
          <mxGeometry width="50" height="50" relative="1" as="geometry">
            <mxPoint x="110" y="525" as="sourcePoint" />
            <mxPoint x="50" y="524" as="targetPoint" />
          </mxGeometry>
        </mxCell>
        <mxCell id="NecGl6S2mi5TgRfiK0er-41" value="" style="endArrow=classic;html=1;rounded=0;" edge="1" parent="1">
          <mxGeometry width="50" height="50" relative="1" as="geometry">
            <mxPoint x="110" y="404.85" as="sourcePoint" />
            <mxPoint x="50" y="404.85" as="targetPoint" />
          </mxGeometry>
        </mxCell>
        <mxCell id="NecGl6S2mi5TgRfiK0er-43" value="a[3]" style="text;html=1;align=center;verticalAlign=middle;resizable=0;points=[];autosize=1;strokeColor=none;fillColor=none;" vertex="1" parent="1">
          <mxGeometry x="50" y="380" width="40" height="30" as="geometry" />
        </mxCell>
        <mxCell id="NecGl6S2mi5TgRfiK0er-45" value="a[1]" style="text;html=1;align=center;verticalAlign=middle;resizable=0;points=[];autosize=1;strokeColor=none;fillColor=none;" vertex="1" parent="1">
          <mxGeometry x="50" y="450" width="40" height="30" as="geometry" />
        </mxCell>
        <mxCell id="NecGl6S2mi5TgRfiK0er-46" value="a[0]" style="text;html=1;align=center;verticalAlign=middle;resizable=0;points=[];autosize=1;strokeColor=none;fillColor=none;" vertex="1" parent="1">
          <mxGeometry x="50" y="498" width="40" height="30" as="geometry" />
        </mxCell>
        <mxCell id="NecGl6S2mi5TgRfiK0er-47" value="" style="endArrow=classic;html=1;rounded=0;exitX=0.004;exitY=0.13;exitDx=0;exitDy=0;exitPerimeter=0;" edge="1" parent="1" source="NecGl6S2mi5TgRfiK0er-2">
          <mxGeometry width="50" height="50" relative="1" as="geometry">
            <mxPoint x="150" y="555" as="sourcePoint" />
            <mxPoint x="50" y="580" as="targetPoint" />
            <Array as="points">
              <mxPoint x="90" y="580" />
            </Array>
          </mxGeometry>
        </mxCell>
        <mxCell id="NecGl6S2mi5TgRfiK0er-48" style="edgeStyle=orthogonalEdgeStyle;rounded=0;orthogonalLoop=1;jettySize=auto;html=1;exitX=0;exitY=0.34;exitDx=0;exitDy=0;exitPerimeter=0;" edge="1" parent="1" source="NecGl6S2mi5TgRfiK0er-2">
          <mxGeometry relative="1" as="geometry">
            <mxPoint x="50" y="614.8723404255319" as="targetPoint" />
            <mxPoint x="110" y="615.0000000000001" as="sourcePoint" />
          </mxGeometry>
        </mxCell>
        <mxCell id="NecGl6S2mi5TgRfiK0er-50" value="" style="endArrow=classic;html=1;rounded=0;exitX=0;exitY=0.5;exitDx=0;exitDy=0;" edge="1" parent="1" source="NecGl6S2mi5TgRfiK0er-63">
          <mxGeometry width="50" height="50" relative="1" as="geometry">
            <mxPoint x="100" y="652.85" as="sourcePoint" />
            <mxPoint x="50" y="652.85" as="targetPoint" />
            <Array as="points" />
          </mxGeometry>
        </mxCell>
        <mxCell id="NecGl6S2mi5TgRfiK0er-51" value="" style="endArrow=classic;html=1;rounded=0;exitX=0;exitY=0.813;exitDx=0;exitDy=0;exitPerimeter=0;" edge="1" parent="1" source="NecGl6S2mi5TgRfiK0er-2">
          <mxGeometry width="50" height="50" relative="1" as="geometry">
            <mxPoint x="140" y="601" as="sourcePoint" />
            <mxPoint x="50" y="690" as="targetPoint" />
            <Array as="points">
              <mxPoint x="100" y="690" />
            </Array>
          </mxGeometry>
        </mxCell>
        <mxCell id="NecGl6S2mi5TgRfiK0er-52" value="a[3]" style="text;html=1;align=center;verticalAlign=middle;resizable=0;points=[];autosize=1;strokeColor=none;fillColor=none;" vertex="1" parent="1">
          <mxGeometry x="60" y="558" width="40" height="30" as="geometry" />
        </mxCell>
        <mxCell id="NecGl6S2mi5TgRfiK0er-53" value="a[2]" style="text;html=1;align=center;verticalAlign=middle;resizable=0;points=[];autosize=1;strokeColor=none;fillColor=none;" vertex="1" parent="1">
          <mxGeometry x="50" y="590" width="40" height="30" as="geometry" />
        </mxCell>
        <mxCell id="NecGl6S2mi5TgRfiK0er-54" value="a[1]" style="text;html=1;align=center;verticalAlign=middle;resizable=0;points=[];autosize=1;strokeColor=none;fillColor=none;" vertex="1" parent="1">
          <mxGeometry x="50" y="628" width="40" height="30" as="geometry" />
        </mxCell>
        <mxCell id="NecGl6S2mi5TgRfiK0er-55" value="a[0]" style="text;html=1;align=center;verticalAlign=middle;resizable=0;points=[];autosize=1;strokeColor=none;fillColor=none;" vertex="1" parent="1">
          <mxGeometry x="50" y="668" width="40" height="30" as="geometry" />
        </mxCell>
        <mxCell id="NecGl6S2mi5TgRfiK0er-56" value="&lt;h1&gt;F&lt;/h1&gt;" style="text;html=1;align=center;verticalAlign=middle;resizable=0;points=[];autosize=1;strokeColor=none;fillColor=none;" vertex="1" parent="1">
          <mxGeometry x="780" y="348" width="40" height="70" as="geometry" />
        </mxCell>
        <mxCell id="NecGl6S2mi5TgRfiK0er-57" value="" style="ellipse;whiteSpace=wrap;html=1;aspect=fixed;" vertex="1" parent="1">
          <mxGeometry x="110" y="278" width="10" height="10" as="geometry" />
        </mxCell>
        <mxCell id="NecGl6S2mi5TgRfiK0er-59" value="" style="ellipse;whiteSpace=wrap;html=1;aspect=fixed;" vertex="1" parent="1">
          <mxGeometry x="110" y="400" width="10" height="10" as="geometry" />
        </mxCell>
        <mxCell id="NecGl6S2mi5TgRfiK0er-62" value="" style="ellipse;whiteSpace=wrap;html=1;aspect=fixed;" vertex="1" parent="1">
          <mxGeometry x="110" y="518" width="10" height="10" as="geometry" />
        </mxCell>
        <mxCell id="NecGl6S2mi5TgRfiK0er-63" value="" style="ellipse;whiteSpace=wrap;html=1;aspect=fixed;" vertex="1" parent="1">
          <mxGeometry x="110" y="648" width="10" height="10" as="geometry" />
        </mxCell>
      </root>
    </mxGraphModel>
  </diagram>
</mxfile>
